<svg width="73" height="28" viewBox="0 0 73 28" fill="none" xmlns="http://www.w3.org/2000/svg">
	<g clip-path="url(#clip0_6703_7670)">
		<path d="M0 21.8632V6.13696H3.52786V18.6507H13.2562V21.8632H0Z" fill="currentColor"></path>
		<path d="M15.2398 21.8632V20.111L21.328 6.13696H25.9116L31.9998 20.111V21.8632H28.6745L27.4393 18.763H19.8004L18.5651 21.8632H15.2398ZM20.9688 15.7525H26.2708L23.6425 9.34946H23.5746L20.9688 15.7525Z" fill="currentColor"></path>
		<path d="M34.7286 21.8632V6.13696H38.2564V21.8632H34.7286Z" fill="currentColor"></path>
		<path d="M46.8527 21.8632V16.921L40.8537 7.88753V6.13696H44.0443L48.5599 13.1018H48.7171L53.1879 6.13696H56.356V7.88967L50.357 16.9231V21.8632H46.8527Z" fill="currentColor"></path>
		<path d="M58.7352 21.8632V6.13696H72.1474V8.09172L71.0249 9.21422H62.262V12.4272H69.7453L69.7677 15.4152H62.262V18.7827H72.1474V21.8632H58.7352Z" fill="currentColor"></path>
		<path d="M38.256 0H15.5643V3.52733H38.256V0Z" fill="#FFE500"></path>
		<path d="M38.2554 24.4731H15.2398V28.0005H38.2554V24.4731Z" fill="#FFE500"></path>
	</g>
	<defs>
		<clipPath id="clip0_6703_7670">
			<rect width="72.1474" height="28" fill="currentColor"></rect>
		</clipPath>
	</defs>
</svg>